<?xml version="1.0" standalone="no"?>
<!DOCTYPE svg PUBLIC "-//W3C//DTD SVG 20010904//EN"
 "http://www.w3.org/TR/2001/REC-SVG-20010904/DTD/svg10.dtd">
<svg version="1.0" xmlns="http://www.w3.org/2000/svg"
 width="571.000000pt" height="600.000000pt" viewBox="0 0 561.000000 230.000000"
 preserveAspectRatio="xMidYMid meet">

<g transform="translate(0.000000,230.000000) scale(0.100000,-0.100000)"
fill="#000000" stroke="none">
<path d="M810 1273 l0 -288 30 0 30 0 0 288 0 287 -30 0 -30 0 0 -287z"/>
<path d="M572 1400 c-51 -8 -82 -35 -85 -76 -2 -25 2 -29 25 -32 20 -2 30 3
39 20 16 30 28 38 62 38 47 0 67 -17 67 -55 0 -39 -14 -49 -108 -80 -80 -26
-109 -84 -81 -164 15 -41 54 -61 124 -61 61 0 108 19 125 49 5 11 10 83 10
160 0 132 -1 141 -23 167 -26 30 -85 43 -155 34z m110 -276 c0 -31 -5 -61 -11
-67 -16 -16 -85 -14 -105 2 -20 17 -21 64 -2 81 18 14 109 50 115 44 2 -2 4
-29 3 -60z"/>
<path d="M930 1230 l0 -182 30 -30 c30 -29 33 -30 111 -26 74 3 83 6 105 31
23 27 24 32 24 208 l0 180 -32 -3 -33 -3 -5 -170 -5 -170 -28 -13 c-22 -11
-76 -10 -89 1 -1 1 -4 81 -7 177 l-6 175 -32 3 -33 3 0 -181z"/>
<path d="M1347 1400 c-20 -4 -49 -17 -62 -30 -25 -23 -25 -25 -25 -201 0 -169
1 -178 20 -184 11 -3 24 -3 30 0 6 4 10 66 10 155 0 82 4 160 9 174 8 19 20
27 53 33 37 7 43 12 46 36 4 30 -6 32 -81 17z"/>
<path d="M1505 1388 c-31 -18 -45 -41 -42 -68 3 -36 53 -42 66 -7 24 62 131
43 131 -23 0 -33 -12 -41 -98 -71 -69 -24 -90 -42 -98 -85 -18 -96 26 -144
131 -144 77 0 121 25 130 73 4 19 5 91 3 161 -3 126 -3 128 -31 152 -24 21
-38 24 -100 24 -40 0 -81 -6 -92 -12z m133 -331 c-16 -14 -32 -17 -57 -13 -39
6 -51 19 -51 57 0 33 19 49 79 70 l46 16 3 -56 c3 -48 0 -58 -20 -74z"/>
<path d="M2633 1209 c-17 -5 -45 -23 -62 -40 -79 -78 -59 -209 40 -259 37 -19
55 -21 184 -18 127 3 147 5 172 24 49 37 73 82 73 139 0 66 -29 112 -90 143
-39 19 -59 22 -165 21 -66 0 -134 -5 -152 -10z m297 -66 c59 -34 68 -113 19
-162 l-31 -31 -134 0 c-134 0 -134 0 -166 29 -28 25 -33 36 -33 74 0 47 21 82
60 98 11 4 73 8 138 8 94 1 125 -3 147 -16z"/>
<path d="M3080 1055 l0 -165 30 0 30 0 0 135 0 135 119 0 c113 0 121 -1 135
-22 21 -30 20 -44 -4 -68 -17 -17 -34 -20 -112 -20 l-93 -1 60 -56 c102 -94
119 -105 164 -101 l41 3 -55 45 c-30 25 -55 48 -55 53 0 4 13 7 29 7 68 0 118
85 90 151 -24 59 -56 69 -226 69 l-153 0 0 -165z"/>
<path d="M3667 1188 c-29 -39 -187 -286 -187 -293 0 -3 15 -5 34 -5 32 0 37 5
116 131 l83 130 38 -63 c21 -35 39 -67 39 -73 0 -5 -34 -12 -75 -15 l-76 -5
16 -22 c15 -21 24 -23 101 -23 84 0 85 0 102 -30 14 -25 23 -30 55 -30 45 0
52 -18 -76 180 -107 165 -125 177 -170 118z"/>
<path d="M4010 1197 c-50 -26 -90 -90 -90 -141 0 -51 40 -118 85 -143 35 -20
54 -23 160 -23 l120 0 17 30 17 30 -134 0 c-129 0 -135 1 -164 26 -38 32 -49
80 -27 122 28 55 49 62 172 62 108 0 112 1 128 25 9 13 16 27 16 30 0 3 -58 5
-128 5 -115 0 -133 -2 -172 -23z"/>
<path d="M4352 1058 l3 -163 159 -3 c142 -2 160 -1 172 15 30 40 21 43 -131
43 l-145 0 0 135 0 135 -30 0 -30 0 2 -162z"/>
<path d="M4790 1198 c-115 -58 -123 -203 -17 -282 25 -18 45 -21 157 -24 124
-3 128 -3 144 19 9 13 16 27 16 31 0 5 -56 8 -125 8 -149 0 -195 16 -195 70 0
4 60 9 133 9 124 1 133 3 151 24 l18 22 -151 3 c-166 3 -177 8 -120 56 29 25
37 26 143 26 l112 0 17 30 18 30 -128 0 c-114 0 -134 -3 -173 -22z"/>
<path d="M2110 1125 l0 -55 -55 0 c-42 0 -55 -3 -55 -15 0 -12 13 -15 55 -15
l55 0 0 -55 c0 -30 5 -55 10 -55 6 0 10 25 10 55 l0 55 55 0 c42 0 55 3 55 15
0 12 -13 15 -55 15 l-55 0 0 55 c0 30 -4 55 -10 55 -5 0 -10 -25 -10 -55z"/>
<path d="M902 808 l3 -93 50 0 c39 0 50 4 53 18 3 14 -4 17 -32 17 l-36 0 0
75 c0 69 -2 75 -20 75 -20 0 -21 -5 -18 -92z"/>
<path d="M1063 810 l-41 -90 24 0 c13 0 24 5 24 10 0 16 68 12 96 -6 13 -9 28
-14 31 -10 7 7 -73 179 -85 184 -4 1 -27 -38 -49 -88z m67 -22 c0 -5 -9 -8
-20 -8 -18 0 -19 3 -9 21 9 17 13 19 20 8 5 -8 9 -17 9 -21z"/>
<path d="M1200 881 c0 -12 7 -18 18 -17 14 1 18 -10 22 -74 4 -58 8 -75 20
-75 12 0 16 16 18 72 3 66 5 71 27 77 14 4 25 13 25 21 0 12 -14 15 -65 15
-57 0 -65 -2 -65 -19z"/>
<path d="M1363 811 c-32 -69 -38 -91 -27 -95 7 -3 20 1 28 9 19 20 71 19 100
-1 13 -8 27 -11 30 -6 6 10 -69 175 -82 180 -5 1 -27 -38 -49 -87z m67 -23 c0
-5 -9 -8 -20 -8 -18 0 -19 3 -9 21 9 17 13 19 20 8 5 -8 9 -17 9 -21z"/>
<path d="M1528 810 c-8 -50 -13 -92 -11 -94 2 -2 13 -2 24 1 14 4 19 14 19 39
0 45 13 43 35 -6 10 -22 21 -40 25 -40 4 0 15 18 25 40 21 47 35 51 35 11 0
-16 6 -33 13 -39 16 -14 39 0 33 19 -3 8 -10 47 -16 87 -7 39 -16 72 -21 72
-5 0 -21 -25 -36 -54 -15 -30 -30 -53 -35 -50 -5 3 -20 28 -33 55 -14 27 -29
49 -34 49 -4 0 -15 -41 -23 -90z"/>
</g>
</svg>
