<?xml version="1.0" standalone="no"?>
<!DOCTYPE svg PUBLIC "-//W3C//DTD SVG 20010904//EN"
 "http://www.w3.org/TR/2001/REC-SVG-20010904/DTD/svg10.dtd">
<svg version="1.0" xmlns="http://www.w3.org/2000/svg"
 width="150px" height="200px" viewBox="0 0 1667.000000 1667.000000"
 preserveAspectRatio="xMidYMid meet">

<g transform="translate(0.000000,1667.000000) scale(0.100000,-0.100000)"
 stroke="none">
<path d="M7560 12315 l0 -1195 -1330 0 -1330 0 0 -485 0 -485 1330 0 1329 0 4
-2627 c4 -2855 0 -2693 57 -2987 45 -234 149 -481 269 -643 78 -104 238 -256
342 -325 164 -109 357 -189 548 -228 176 -36 363 -43 1146 -44 l750 -1 3 518
2 517 -33 0 c-38 0 -583 70 -787 101 -86 13 -153 29 -186 45 -57 27 -122 91
-152 151 -22 43 -53 178 -85 368 l-21 130 -3 2508 -3 2507 665 0 665 0 0 490
0 490 -665 0 -665 0 0 1195 0 1195 -925 0 -925 0 0 -1195z" fill="#e04200"/>
<path d="M12540 11214 c-19 -2 -78 -9 -130 -15 -372 -42 -725 -180 -1004 -392
-580 -440 -954 -1271 -1086 -2413 -98 -855 -87 -1760 31 -2594 124 -878 402
-1561 813 -1997 458 -486 1108 -672 1931 -552 268 39 450 89 629 173 565 265
857 757 916 1541 5 77 13 168 16 203 l6 62 -680 0 -680 0 -17 -97 c-35 -199
-75 -391 -94 -446 -59 -172 -206 -261 -426 -260 -243 1 -389 127 -470 405 -58
199 -80 351 -99 678 -48 793 -64 1571 -48 2257 16 673 53 1331 88 1583 65 468
280 713 580 661 153 -27 256 -120 298 -271 20 -71 41 -266 61 -555 8 -126 18
-245 21 -262 l5 -33 811 0 810 0 -6 43 c-3 23 -15 134 -26 247 -40 396 -73
579 -146 800 -226 688 -732 1099 -1494 1215 -100 15 -528 29 -610 19z" fill="#00205c"/>
<path d="M1813 8113 c6 -3105 6 -3107 48 -3418 37 -279 73 -428 149 -615 176
-439 498 -708 970 -814 257 -57 384 -70 675 -70 237 0 287 3 404 23 330 57
646 177 909 347 53 35 100 60 104 56 4 -4 32 -74 62 -157 31 -82 63 -156 73
-162 13 -10 179 -13 750 -13 l733 0 0 3345 0 3345 -910 0 -910 0 0 -2672 c0
-2598 -1 -2674 -19 -2704 -30 -49 -138 -90 -316 -119 -117 -19 -341 -19 -441
0 -213 41 -352 175 -417 402 l-22 78 -3 3078 -2 3077 -921 0 -922 0 6 -3007z" fill="#00205c"/>
</g>
</svg>
