<!DOCTYPE svg PUBLIC "-//W3C//DTD SVG 1.1//EN" "http://www.w3.org/Graphics/SVG/1.1/DTD/svg11.dtd">

<!-- Uploaded to: SVG Repo, www.svgrepo.com, Transformed by: SVG Repo Mixer Tools -->
<svg fill="#001524" version="1.1" id="Capa_1" xmlns="http://www.w3.org/2000/svg" xmlns:xlink="http://www.w3.org/1999/xlink" width="44px" height="54px" viewBox="0 0 121.51 121.511" xml:space="preserve">

<g id="SVGRepo_bgCarrier" stroke-width="0"/>

<g id="SVGRepo_tracerCarrier" stroke-linecap="round" stroke-linejoin="round"/>

<g id="SVGRepo_iconCarrier"> <g> <g> <path d="M50.116,78.373c1.407-1.311,2.471-3.025,2.933-5.182l2.508-11.705c2.988,2.607,7.471,4.384,14.276,4.384 c3.083,0,5.581-2.499,5.581-5.581s-2.498-5.581-5.581-5.581c-8.561,0-8.806-3.124-9.396-10.67 c-0.107-1.369-0.218-2.784-0.414-4.165c-0.037-0.26-0.098-0.51-0.167-0.755c-0.474-4.417-3.961-8.051-7.603-9.816 c0,0-1.386-0.761-2.968-1.063c-1.514-0.289-3.268-0.299-3.268-0.299l-0.042-0.002c-1.549,0.045-3.184,0.345-4.738,0.911 c-0.465,0.065-0.93,0.184-1.383,0.373c-0.65,0.271-16.059,6.769-27.436,16.997c-2.292,2.061-2.479,5.589-0.418,7.881 c1.102,1.226,2.623,1.85,4.151,1.85c1.329,0,2.663-0.472,3.729-1.431c3.737-3.36,8.077-6.305,12.045-8.676l-4.676,21.822 c-0.707,3.301,0.33,6.325,2.293,8.714c-0.916,8.861-2.363,19.01-3.217,21.102c-0.925,1.873-6.905,7.602-12.799,12.258 c-2.857,2.259-3.345,6.406-1.087,9.265c1.302,1.647,3.231,2.508,5.181,2.508c1.431,0,2.871-0.463,4.082-1.419 c4.273-3.374,14.466-11.839,16.806-17.556c1.099-2.683,2.088-8.349,2.856-13.894l19.582,25.549 c1.299,1.695,3.258,2.584,5.24,2.584c1.399,0,2.812-0.443,4.007-1.36c2.893-2.216,3.439-6.356,1.225-9.248L50.116,78.373z"/> <circle cx="55.454" cy="14.376" r="14.376"/> <path d="M99.393,76.6c-6.368,0-11.549,5.184-11.549,11.551s5.181,11.549,11.549,11.549c6.367,0,11.55-5.182,11.55-11.549 S105.76,76.6,99.393,76.6z M95.846,79.462c0.085-0.167,0.459-0.901,0.771-1.51c0.115-0.229,0.224-0.439,0.305-0.595l0.039-0.078 l0.086-0.02c1.498-0.318,3.066-0.318,4.578-0.001l0.083,0.019l0.678,1.226c0.241,0.438,0.462,0.836,0.528,0.955l0.103,0.187 l-0.363,0.142c-0.153,0.06-0.382,0.147-0.646,0.251l-0.173,0.066c-0.735,0.287-1.68,0.655-2.127,0.828 c-0.146,0.059-0.238,0.094-0.26,0.102l-0.067,0.027l-0.161-0.065l-2.411-0.939c-0.315-0.122-0.582-0.227-0.739-0.288 c-0.039-0.015-0.075-0.029-0.101-0.039l-0.212-0.084L95.846,79.462z M90.98,88.27l-0.181,0.227 c-0.14,0.175-0.239,0.302-0.28,0.351l-0.127,0.154l-0.145-0.138c-0.014-0.012-0.026-0.025-0.038-0.036l-1.291-1.248 c-0.103-0.099-0.199-0.191-0.285-0.275l-0.258-0.25l0.009-0.088c0.146-1.534,0.607-2.995,1.373-4.346l0.043-0.077l2.765-0.479 v0.228l0.08,1.147c0.065,0.91,0.146,2.06,0.165,2.367c0.003,0.02,0.004,0.041,0.004,0.057l0.004,0.07l-0.03,0.063 c-0.017,0.022-0.06,0.075-0.124,0.159l-0.18,0.223C92.103,86.857,91.433,87.697,90.98,88.27z M95.784,97.863 c-0.211,0.107-0.407,0.209-0.568,0.289l-0.076,0.039l-0.077-0.032c-1.426-0.603-2.689-1.489-3.761-2.634l-0.063-0.066l0.094-0.581 l0.354-2.216l1.833,0.497c0.782,0.211,1.591,0.43,1.808,0.489l0.12,0.027l0.112,0.178l0.351,0.556 c0.304,0.478,0.709,1.12,1.027,1.624l0.192,0.304c0.088,0.14,0.162,0.255,0.215,0.34l0.038,0.062 c0.016,0.023,0.026,0.043,0.036,0.055l0.124,0.176L95.784,97.863z M97.156,91.115l-0.041-0.129 c-0.044-0.137-0.532-1.638-0.901-2.772l-0.456-1.403l0.11-0.078c0.162-0.112,2.382-1.68,3.153-2.228 c0.137-0.096,0.229-0.162,0.257-0.181l0.104-0.072l0.105,0.072c0.028,0.019,0.121,0.084,0.259,0.181 c0.772,0.549,2.991,2.116,3.152,2.229l0.11,0.076l-0.053,0.174l-0.517,1.58c-0.263,0.807-0.556,1.703-0.701,2.151l-0.131,0.402 h-4.452V91.115z M107.498,95.387c-1.054,1.167-2.368,2.112-3.81,2.735l-0.079,0.034l-0.077-0.038 c-0.174-0.087-0.388-0.193-0.608-0.304l-1.687-0.838l2.081-3.297l0.07-0.018c0.043-0.012,0.441-0.119,0.955-0.258l1.755-0.476 c0.366-0.1,0.656-0.179,0.766-0.208l0.183-0.049l0.063,0.178l0.081,0.438c0.064,0.352,0.154,0.85,0.233,1.297 c0.044,0.239,0.084,0.466,0.117,0.644l0.016,0.09L107.498,95.387z M109.757,87.666l-1.379,1.332l-0.128-0.148 c-0.019-0.02-0.042-0.051-0.071-0.092l-0.066-0.083c-0.104-0.126-0.251-0.312-0.419-0.522c-0.446-0.564-1.057-1.326-1.412-1.772 c-0.125-0.157-0.218-0.274-0.263-0.332l-0.069-0.087l0.007-0.15l0.238-3.418c0.002-0.044,0.006-0.082,0.01-0.109l0.021-0.211 l0.198,0.031c0.179,0.032,0.992,0.172,1.689,0.293c0.181,0.031,0.352,0.062,0.501,0.086l0.246,0.043l0.043,0.076 c0.783,1.375,1.251,2.875,1.392,4.453l0.008,0.09l-0.065,0.062C110.1,87.333,109.936,87.493,109.757,87.666z"/> <path d="M84.625,92.727c-0.405,0.228-0.977,0.555-1.628,0.967c-0.668,0.395-1.41,0.916-2.21,1.455 c-0.405,0.26-0.796,0.578-1.201,0.879c-0.403,0.307-0.813,0.617-1.223,0.928c-0.389,0.337-0.776,0.675-1.158,1.008 c-0.374,0.341-0.771,0.635-1.1,0.993c-0.333,0.348-0.654,0.684-0.96,1.001c-0.297,0.324-0.603,0.602-0.839,0.906 c-0.911,1.224-1.518,2.039-1.518,2.039s0.717-0.709,1.791-1.771c0.271-0.258,0.615-0.488,0.95-0.756 c0.341-0.262,0.698-0.538,1.069-0.823c0.361-0.294,0.798-0.524,1.204-0.796c0.414-0.263,0.833-0.527,1.254-0.795 c0.438-0.238,0.876-0.477,1.308-0.71c0.434-0.229,0.846-0.474,1.273-0.664c0.844-0.399,1.619-0.785,2.31-1.062 c0.685-0.301,1.251-0.52,1.646-0.668c0.408-0.149,0.642-0.236,0.642-0.236l-0.99-2.236C85.245,92.384,85.02,92.509,84.625,92.727z "/> </g> </g> </g>

</svg>