<svg height="60" viewBox="0 0 128 128" width="70" xmlns="http://www.w3.org/2000/svg"><path d="m59.017 45.033h10.083a9.274 9.274 0 0 1 9.274 9.274v9.258a0 0 0 0 1 0 0h-28.631a0 0 0 0 1 0 0v-9.258a9.274 9.274 0 0 1 9.274-9.274z" fill="#001524"/><ellipse cx="64.059" cy="35.667" fill="#001524" rx="9.401" ry="9.366"/><path d="m28.754 83.166h10.084a9.274 9.274 0 0 1 9.274 9.274v9.26a0 0 0 0 1 0 0h-28.632a0 0 0 0 1 0 0v-9.26a9.274 9.274 0 0 1 9.274-9.274z" fill="#001524"/><ellipse cx="33.796" cy="73.801" fill="#001524" rx="9.401" ry="9.366"/><path d="m89.279 83.166h10.084a9.274 9.274 0 0 1 9.274 9.274v9.26a0 0 0 0 1 0 0h-28.632a0 0 0 0 1 0 0v-9.26a9.274 9.274 0 0 1 9.274-9.274z" fill="#001524"/><ellipse cx="94.321" cy="73.801" fill="#001524" rx="9.401" ry="9.366"/><path d="m33.8 58.847a1.75 1.75 0 0 1 -1.75-1.75v-2.586a9.279 9.279 0 0 1 9.268-9.269h1.544a1.75 1.75 0 0 1 0 3.5h-1.548a5.775 5.775 0 0 0 -5.768 5.769v2.589a1.75 1.75 0 0 1 -1.746 1.747z" fill="#318fb5"/><path d="m72.382 95.336h-16.588a1.75 1.75 0 0 1 0-3.5h16.588a1.75 1.75 0 0 1 0 3.5z" fill="#318fb5"/><path d="m94.321 58.847a1.75 1.75 0 0 1 -1.75-1.75v-2.586a5.775 5.775 0 0 0 -5.771-5.769h-1.4a1.75 1.75 0 0 1 0-3.5h1.4a9.279 9.279 0 0 1 9.268 9.269v2.589a1.75 1.75 0 0 1 -1.747 1.747z" fill="#318fb5"/><g fill="#172956"><path d="m49.742 65.315h28.633a1.75 1.75 0 0 0 1.75-1.75v-9.258a11.034 11.034 0 0 0 -8.308-10.672 11.152 11.152 0 1 0 -15.516 0 11.034 11.034 0 0 0 -8.309 10.672v9.258a1.75 1.75 0 0 0 1.75 1.75zm14.317-37.264a7.616 7.616 0 1 1 -7.652 7.616 7.643 7.643 0 0 1 7.652-7.616zm-12.567 26.256a7.532 7.532 0 0 1 7.525-7.524h10.083a7.532 7.532 0 0 1 7.524 7.524v7.508h-25.132z"/><path d="m41.554 81.768a11.128 11.128 0 1 0 -18.909-7.968 1.75 1.75 0 0 0 3.5 0 7.623 7.623 0 1 1 1.085 3.912 1.75 1.75 0 0 0 -3 1.808 11.074 11.074 0 0 0 1.8 2.25 11.033 11.033 0 0 0 -8.3 10.669v9.261a1.751 1.751 0 0 0 1.75 1.75h28.632a1.75 1.75 0 0 0 1.75-1.75v-9.26a11.034 11.034 0 0 0 -8.308-10.672zm4.808 18.181h-25.133v-7.509a7.533 7.533 0 0 1 7.525-7.524h10.084a7.533 7.533 0 0 1 7.524 7.524z"/><path d="m99.256 99.949h-.25a1.75 1.75 0 0 0 0 3.5h.25a1.75 1.75 0 0 0 0-3.5z"/><path d="m102.079 81.768a11.151 11.151 0 1 0 -15.516 0 11.034 11.034 0 0 0 -8.308 10.672v9.26a1.75 1.75 0 0 0 1.75 1.75h13.584a1.75 1.75 0 0 0 0-3.5h-11.834v-7.51a7.533 7.533 0 0 1 7.524-7.524h10.084a7.533 7.533 0 0 1 7.525 7.524v7.509h-1.132a1.75 1.75 0 0 0 0 3.5h2.882a1.751 1.751 0 0 0 1.75-1.75v-9.259a11.034 11.034 0 0 0 -8.309-10.672zm-7.758-15.583a7.616 7.616 0 1 1 -7.651 7.615 7.643 7.643 0 0 1 7.651-7.615z"/><path d="m33.8 58.847a1.75 1.75 0 0 0 1.75-1.75v-2.586a5.775 5.775 0 0 1 5.768-5.769h1.544a1.75 1.75 0 0 0 0-3.5h-1.548a9.279 9.279 0 0 0 -9.268 9.269v2.589a1.75 1.75 0 0 0 1.754 1.747z"/><path d="m72.382 91.836h-16.588a1.75 1.75 0 0 0 0 3.5h16.588a1.75 1.75 0 0 0 0-3.5z"/><path d="m85.4 48.742h1.4a5.775 5.775 0 0 1 5.768 5.769v2.589a1.75 1.75 0 1 0 3.5 0v-2.589a9.279 9.279 0 0 0 -9.268-9.269h-1.4a1.75 1.75 0 0 0 0 3.5z"/></g></svg>